<svg width="1200" height="760" viewBox="0 0 1200 760" fill="none" xmlns="http://www.w3.org/2000/svg">
  <defs>
    <linearGradient id="bg" x1="0" y1="0" x2="1200" y2="760" gradientUnits="userSpaceOnUse">
      <stop stop-color="#ECF7FB" />
      <stop offset="1" stop-color="#DCEFF8" />
    </linearGradient>
    <linearGradient id="accent" x1="0" y1="0" x2="1" y2="1">
      <stop stop-color="#0B7AA9" />
      <stop offset="1" stop-color="#0B5F84" />
    </linearGradient>
    <linearGradient id="heart" x1="0" y1="0" x2="1" y2="1">
      <stop stop-color="#E73A63" />
      <stop offset="1" stop-color="#A4122D" />
    </linearGradient>
  </defs>

  <rect width="1200" height="760" rx="34" fill="url(#bg)" />
  <rect x="70" y="80" width="1060" height="600" rx="28" fill="white" stroke="#CFE5F1" stroke-width="4" />
  <rect x="118" y="132" width="300" height="496" rx="18" fill="#F3F9FD" stroke="#DBEBF4" stroke-width="3" />
  <rect x="452" y="132" width="630" height="496" rx="18" fill="#F7FCFF" stroke="#DBEBF4" stroke-width="3" />

  <rect x="154" y="184" width="228" height="64" rx="14" fill="url(#accent)" />
  <rect x="154" y="268" width="228" height="64" rx="14" fill="#E2F0F8" stroke="#B5D7E8" stroke-width="3" />
  <rect x="154" y="360" width="228" height="18" rx="9" fill="#C1DEED" />
  <rect x="154" y="402" width="188" height="14" rx="7" fill="#D3E8F3" />
  <rect x="154" y="434" width="208" height="14" rx="7" fill="#D3E8F3" />

  <g opacity="0.36" stroke="#D8EAF3" stroke-width="2">
    <path d="M452 202H1082" />
    <path d="M452 274H1082" />
    <path d="M452 346H1082" />
    <path d="M452 418H1082" />
    <path d="M452 490H1082" />
    <path d="M518 132V628" />
    <path d="M584 132V628" />
    <path d="M650 132V628" />
    <path d="M716 132V628" />
    <path d="M782 132V628" />
    <path d="M848 132V628" />
    <path d="M914 132V628" />
    <path d="M980 132V628" />
  </g>

  <g transform="translate(625 186)">
    <path d="M95 42c22-44 86-44 104 7 10 28 1 58-20 82-22 26-54 50-84 74-4 3-10 3-14 0-30-24-62-48-84-74-21-24-30-54-20-82 18-51 82-51 104-7l7 12 7-12z" fill="url(#heart)" />
    <path d="M95 72c16-31 63-31 78 5 8 21 2 44-13 62-17 20-41 39-65 58-24-19-48-38-65-58-15-18-21-41-13-62 15-36 62-36 78-5z" fill="#F77791" fill-opacity="0.33" />
  </g>

  <circle cx="574" cy="548" r="18" fill="#E11D48" />
  <text x="568" y="555" fill="white" font-size="18" font-weight="700" font-family="Figtree, 'Noto Sans TC', sans-serif">1</text>
  <circle cx="702" cy="508" r="18" fill="#E11D48" />
  <text x="696" y="515" fill="white" font-size="18" font-weight="700" font-family="Figtree, 'Noto Sans TC', sans-serif">2</text>
  <circle cx="822" cy="542" r="18" fill="#E11D48" />
  <text x="816" y="549" fill="white" font-size="18" font-weight="700" font-family="Figtree, 'Noto Sans TC', sans-serif">3</text>

  <text x="600" y="94" fill="#134F6D" font-size="42" font-weight="700" font-family="Figtree, 'Noto Sans TC', sans-serif">3D 心臟模型互動工具</text>
  <text x="600" y="712" fill="#2E627B" font-size="28" font-weight="600" font-family="Figtree, 'Noto Sans TC', sans-serif">Rotate • Pan • Zoom • Open/Close</text>
</svg>
